HIERARCHY
ROOT Hips
{
  OFFSET 5.84602e-005 68.8428 3.50346
  CHANNELS 6 Xposition Yposition Zposition Zrotation Xrotation Yrotation
  JOINT Spine
  {
    OFFSET 0 8.597 -4.6522
    CHANNELS 3 Zrotation Xrotation Yrotation
    JOINT Spine1
    {
      OFFSET 0 7.8454 0.4098
      CHANNELS 3 Zrotation Xrotation Yrotation
      JOINT Spine2
      {
        OFFSET 0 9.7078 -2.1609
        CHANNELS 3 Zrotation Xrotation Yrotation
        JOINT Neck
        {
          OFFSET 0 21.8761 -0.4549
          CHANNELS 3 Zrotation Xrotation Yrotation
          JOINT Head
          {
            OFFSET 0 12.3537 3.3602
            CHANNELS 3 Zrotation Xrotation Yrotation
            End Site
            {
              OFFSET 0.0001 18.9506 0.5657
            }
          }
        }
        JOINT LeftShoulder
        {
          OFFSET 2.2086 21.1115 7.2329
          CHANNELS 3 Zrotation Xrotation Yrotation
          JOINT LeftArm
          {
            OFFSET 13.1193 3.0282 -4.8998
            CHANNELS 3 Zrotation Xrotation Yrotation
            JOINT LeftForeArm
            {
              OFFSET 27.4081 -0.0973053 -0.2375
              CHANNELS 3 Zrotation Xrotation Yrotation
              JOINT LeftHand
              {
                OFFSET 22.8641 0.0662994 -0.1369
                CHANNELS 3 Zrotation Xrotation Yrotation
                JOINT LeftHandIndex1
                {
                  OFFSET 8.8614 0.775009 2.4612
                  CHANNELS 3 Zrotation Xrotation Yrotation
                  JOINT LeftHandIndex2
                  {
                    OFFSET 3.3146 -0.808304 0.5841
                    CHANNELS 3 Zrotation Xrotation Yrotation
                    JOINT LeftHandIndex3
                    {
                      OFFSET 2.2628 -0.552002 0.3989
                      CHANNELS 3 Zrotation Xrotation Yrotation
                      End Site
                      {
                        OFFSET 1.6102 -0.4807 0.2612
                      }
                    }
                  }
                }
                JOINT LeftHandMiddle1
                {
                  OFFSET 8.9937 0.895004 0.2143
                  CHANNELS 3 Zrotation Xrotation Yrotation
                  JOINT LeftHandMiddle2
                  {
                    OFFSET 4.0984 0.0113983 -0.0242
                    CHANNELS 3 Zrotation Xrotation Yrotation
                    JOINT LeftHandMiddle3
                    {
                      OFFSET 2.2716 0.00689697 -0.0138001
                      CHANNELS 3 Zrotation Xrotation Yrotation
                      End Site
                      {
                        OFFSET 2.0404 -0.1441 0.0027
                      }
                    }
                  }
                }
                JOINT LeftHandRing1
                {
                  OFFSET 8.5234 0.597198 -2.0164
                  CHANNELS 3 Zrotation Xrotation Yrotation
                  JOINT LeftHandRing2
                  {
                    OFFSET 3.7188 -0.188293 -0.2328
                    CHANNELS 3 Zrotation Xrotation Yrotation
                    JOINT LeftHandRing3
                    {
                      OFFSET 2.1191 -0.106598 -0.1332
                      CHANNELS 3 Zrotation Xrotation Yrotation
                      End Site
                      {
                        OFFSET 1.8737 -0.2304 -0.0886
                      }
                    }
                  }
                }
                JOINT LeftHandPinky1
                {
                  OFFSET 7.9094 -0.601089 -3.4825
                  CHANNELS 3 Zrotation Xrotation Yrotation
                  JOINT LeftHandPinky2
                  {
                    OFFSET 2.2874 -0.477005 -0.6314
                    CHANNELS 3 Zrotation Xrotation Yrotation
                    JOINT LeftHandPinky3
                    {
                      OFFSET 1.6774 -0.349396 -0.4633
                      CHANNELS 3 Zrotation Xrotation Yrotation
                      End Site
                      {
                        OFFSET 1.4888 -0.4091 -0.3416
                      }
                    }
                  }
                }
                JOINT LeftHandThumb1
                {
                  OFFSET 1.833 -1.3875 1.3896
                  CHANNELS 3 Zrotation Xrotation Yrotation
                  JOINT LeftHandThumb2
                  {
                    OFFSET 3.4129 -1.121 2.5732
                    CHANNELS 3 Zrotation Xrotation Yrotation
                    JOINT LeftHandThumb3
                    {
                      OFFSET 2.2474 -0.804199 1.6192
                      CHANNELS 3 Zrotation Xrotation Yrotation
                      End Site
                      {
                        OFFSET 1.6527 -0.5689 1.1317
                      }
                    }
                  }
                }
              }
            }
          }
        }
        JOINT RightShoulder
        {
          OFFSET -2.2086 21.1115 7.2329
          CHANNELS 3 Zrotation Xrotation Yrotation
          JOINT RightArm
          {
            OFFSET -13.1216 3.0287 -4.9007
            CHANNELS 3 Zrotation Xrotation Yrotation
            JOINT RightForeArm
            {
              OFFSET -27.4081 -0.0973053 -0.2375
              CHANNELS 3 Zrotation Xrotation Yrotation
              JOINT RightHand
              {
                OFFSET -22.8641 0.0664063 -0.1369
                CHANNELS 3 Zrotation Xrotation Yrotation
                JOINT RightHandIndex1
                {
                  OFFSET -8.8614 0.774994 2.4612
                  CHANNELS 3 Zrotation Xrotation Yrotation
                  JOINT RightHandIndex2
                  {
                    OFFSET -3.3146 -0.808304 0.5841
                    CHANNELS 3 Zrotation Xrotation Yrotation
                    JOINT RightHandIndex3
                    {
                      OFFSET -2.2628 -0.552002 0.3989
                      CHANNELS 3 Zrotation Xrotation Yrotation
                      End Site
                      {
                        OFFSET -1.6102 -0.4807 0.2612
                      }
                    }
                  }
                }
                JOINT RightHandMiddle1
                {
                  OFFSET -8.9937 0.894989 0.2143
                  CHANNELS 3 Zrotation Xrotation Yrotation
                  JOINT RightHandMiddle2
                  {
                    OFFSET -4.0984 0.0113983 -0.0242
                    CHANNELS 3 Zrotation Xrotation Yrotation
                    JOINT RightHandMiddle3
                    {
                      OFFSET -2.2716 0.00691223 -0.0138001
                      CHANNELS 3 Zrotation Xrotation Yrotation
                      End Site
                      {
                        OFFSET -2.0404 -0.1441 0.0027
                      }
                    }
                  }
                }
                JOINT RightHandRing1
                {
                  OFFSET -8.5234 0.597198 -2.0164
                  CHANNELS 3 Zrotation Xrotation Yrotation
                  JOINT RightHandRing2
                  {
                    OFFSET -3.7188 -0.188309 -0.2328
                    CHANNELS 3 Zrotation Xrotation Yrotation
                    JOINT RightHandRing3
                    {
                      OFFSET -2.1191 -0.106598 -0.1332
                      CHANNELS 3 Zrotation Xrotation Yrotation
                      End Site
                      {
                        OFFSET -1.8737 -0.2304 -0.0886
                      }
                    }
                  }
                }
                JOINT RightHandPinky1
                {
                  OFFSET -7.9094 -0.601105 -3.4825
                  CHANNELS 3 Zrotation Xrotation Yrotation
                  JOINT RightHandPinky2
                  {
                    OFFSET -2.2874 -0.477005 -0.6314
                    CHANNELS 3 Zrotation Xrotation Yrotation
                    JOINT RightHandPinky3
                    {
                      OFFSET -1.6774 -0.349396 -0.4633
                      CHANNELS 3 Zrotation Xrotation Yrotation
                      End Site
                      {
                        OFFSET -1.4888 -0.4091 -0.3416
                      }
                    }
                  }
                }
                JOINT RightHandThumb1
                {
                  OFFSET -1.833 -1.38751 1.3896
                  CHANNELS 3 Zrotation Xrotation Yrotation
                  JOINT RightHandThumb2
                  {
                    OFFSET -3.41299 -1.12099 2.5732
                    CHANNELS 3 Zrotation Xrotation Yrotation
                    JOINT RightHandThumb3
                    {
                      OFFSET -2.24741 -0.804108 1.6192
                      CHANNELS 3 Zrotation Xrotation Yrotation
                      End Site
                      {
                        OFFSET -1.6527 -0.5689 1.1317
                      }
                    }
                  }
                }
              }
            }
          }
        }
      }
    }
  }
  JOINT RightUpLeg
  {
    OFFSET -9.1966 3.8861 -0.7581
    CHANNELS 3 Zrotation Xrotation Yrotation
    JOINT RightLeg
    {
      OFFSET -0.7359 -41.0265 0
      CHANNELS 3 Zrotation Xrotation Yrotation
      JOINT RightFoot
      {
        OFFSET 0 -40.2855 0
        CHANNELS 3 Zrotation Xrotation Yrotation
        JOINT RightToeBase
        {
          OFFSET 0 -5.6122 11.7359
          CHANNELS 3 Zrotation Xrotation Yrotation
          End Site
          {
            OFFSET 0 0 7.8731
          }
        }
      }
    }
  }
  JOINT LeftUpLeg
  {
    OFFSET 9.1965 3.8864 -0.7581
    CHANNELS 3 Zrotation Xrotation Yrotation
    JOINT LeftLeg
    {
      OFFSET 0.7359 -41.0268 0
      CHANNELS 3 Zrotation Xrotation Yrotation
      JOINT LeftFoot
      {
        OFFSET 0 -40.2855 0
        CHANNELS 3 Zrotation Xrotation Yrotation
        JOINT LeftToeBase
        {
          OFFSET 0 -5.6122 11.7359
          CHANNELS 3 Zrotation Xrotation Yrotation
          End Site
          {
            OFFSET 0 0 7.8731
          }
        }
      }
    }
  }
}
MOTION
Frames:	4
Frame Time:	0.0333333
5.84602e-005 68.8428 3.50346 0 0 -0 0 0 -0 0 0 -0 0 0 -0 0 0 -0 0 0 -0 0 0 -0 0 0 -0 0 0 -0 0 0 -0 0 0 -0 0 0 -0 0 0 -0 0 0 -0 -0.0146107 -8.87603e-005 -2.63497e-007 2.99804e-018 -2.42657e-020 -1.42182e-022 0 0 -0 -0.0187562 -0.001176 5.858e-005 5.06224e-018 3.88251e-019 1.21329e-020 0 0 -0 -0.012269 -0.00324817 0.000675346 -1.74678e-018 3.88251e-019 -0 0 0 -0 0 0 -0 0 0 -0 0 0 -0 0 0 -0 0 0 -0 0 0 -0 0 0 -0 0 0 -0 0 0 -0 0 0 -0 0.0149955 -9.10982e-005 2.64101e-007 -9.69331e-018 1.21329e-020 -4.7394e-023 0 0 -0 0.0189956 -0.00119102 -5.96516e-005 -5.41541e-019 0 2.42657e-020 0 0 -0 0.0122698 -0.00324857 -0.000673756 -2.00796e-019 0 -1.94126e-019 0 0 -0 0 0 -0 0 0 -0 3.39842 1.33031 -0.0637918 -5.65207e-008 0.834868 -0.000436188 -3.39935 -2.16518 -0.0642563 -8.89002e-024 -1.18485e-023 -1.48106e-024 -3.39844 1.35642 0.0640283 -3.18788e-007 0.782166 -0.000588827 3.39931 -2.13858 0.0634662 1.1399e-023 0 -0 
6.38769 25.3612 9.72723 66.6109 -0.0660197 132.51 0.293855 3.39128 -0.284197 0.606231 6.78106 -0.587407 0.606222 6.78105 -0.587394 -0.0509975 -7.56671 0.00461109 -2.93584e-006 1.40091 9.80146e-007 -5.87584 -18.5245 -0.322071 -47.6358 19.5505 -30.1013 -28.233 1.74089 -7.69047 -28.1684 8.48299 -8.91682 6.36111e-015 8.69683e-016 -1.61513e-015 5.72559e-007 -2.12338e-007 1.79508e-006 8.7432e-007 -1.46645e-007 1.50106e-006 6.36111e-015 8.69683e-016 -1.61513e-015 -0.0145876 -9.04441e-005 1.9826e-006 1.27775e-006 2.74506e-008 1.3928e-006 6.36111e-015 8.69683e-016 -1.61513e-015 -0.0187098 -0.00117183 6.00447e-005 8.74295e-007 -1.46893e-007 1.50103e-006 6.36111e-015 8.69683e-016 -1.61513e-015 -0.0122456 -0.00324401 0.000676506 8.74335e-007 -1.46817e-007 1.50102e-006 6.36111e-015 8.69683e-016 -1.61513e-015 5.72559e-007 -2.12338e-007 1.79508e-006 8.7432e-007 -1.46645e-007 1.50106e-006 -8.25899 -19.3081 4.01831 39.0759 4.47255 40.2043 38.121 -8.25009 51.9816 27.3623 -0.884869 6.78755 -1.06776e-007 -3.03461e-007 -4.20331e-006 1.88534e-007 -1.63088e-006 -5.32346e-006 -1.06776e-007 -3.03461e-007 -4.2033e-006 -1.06776e-007 -3.03461e-007 -4.20331e-006 0.0149578 -9.1439e-005 -6.63981e-006 1.50493e-007 -1.37514e-007 -1.18968e-006 -1.06776e-007 -3.03461e-007 -4.20331e-006 0.0190008 -0.00119246 -6.61833e-005 -1.07721e-007 -3.04101e-007 -4.20325e-006 -1.06776e-007 -3.03461e-007 -4.20331e-006 0.0123037 -0.00325722 -0.000682002 -1.07477e-007 -3.03758e-007 -4.20324e-006 -1.06776e-007 -3.03461e-007 -4.20331e-006 1.88534e-007 -1.63088e-006 -5.32346e-006 -1.06776e-007 -3.03461e-007 -4.2033e-006 -10.75 -28.1776 -11.0271 57.4609 43.3369 -78.9172 1.56232 13.5194 1.2067 5.98543e-007 5.90232e-007 -1.4722e-007 3.61386 -4.00481 6.96113 -1.27577 43.829 -0.0130575 3.81125 26.8445 0.0397529 6.1726e-006 -3.61413e-006 -7.34373e-007 
5.61691 3.12636 13.8656 96.6586 -0.148901 -167.902 0.452417 4.80509 -0.452529 0.948082 9.60629 -0.9483 0.948093 9.60628 -0.948305 0.175846 -10.1909 -0.015112 -3.83402e-006 2.42534 1.6861e-006 -8.74771 -26.4071 -0.893242 -62.4685 23.6426 -45.3006 -39.8756 3.13597 -12.5986 -40.4908 11.9493 -12.9364 -2.65016e-006 2.41629e-007 4.02892e-006 -2.65016e-006 2.41629e-007 4.02892e-006 7.95139e-016 -3.18055e-015 7.95139e-016 -2.65016e-006 2.41629e-007 4.02892e-006 -0.0146089 -8.62462e-005 6.34787e-006 1.59028e-015 9.54166e-015 -0 -2.65016e-006 2.41629e-007 4.02892e-006 -0.0187734 -0.00117849 6.22056e-005 1.59028e-015 0 -0 -2.65016e-006 2.41629e-007 4.02892e-006 -0.0122738 -0.00324644 0.000677951 1.59028e-015 3.18055e-015 3.97569e-016 -2.65016e-006 2.41629e-007 4.02892e-006 -2.65016e-006 2.41629e-007 4.02892e-006 7.95139e-016 -3.18055e-015 7.95139e-016 -11.2161 -27.5773 5.57148 54.9843 4.60233 58.3281 58.7952 -4.93752 75.1846 39.9877 -1.53771 9.93483 -3.18055e-015 2.78299e-015 -4.96962e-016 3.18055e-015 -1.19271e-015 -2.98177e-015 -2.75869e-033 -3.97569e-016 -3.97569e-016 -3.18055e-015 2.78299e-015 -4.96962e-016 0.015019 -8.84327e-005 4.08425e-006 -8.27607e-033 1.59028e-015 2.98177e-016 -3.18055e-015 2.78299e-015 -4.96962e-016 0.0190155 -0.00119737 -6.59639e-005 2.06902e-033 -1.19271e-015 9.93923e-017 -3.18055e-015 2.78299e-015 -4.96962e-016 0.0122441 -0.00323848 -0.000670793 -3.18055e-015 4.37326e-015 1.47101e-014 -3.18055e-015 2.78299e-015 -4.96962e-016 3.18055e-015 -1.19271e-015 -2.98177e-015 -2.75869e-033 -3.97569e-016 -3.97569e-016 -23.4241 -41.2564 -17.971 93.2068 23.0389 -101.303 4.28415 21.8015 1.80295 -3.18055e-015 3.65764e-014 -0 7.65408 -8.08164 9.96662 0.245304 65.0757 -1.87803 3.56539 39.802 0.237219 4.41151e-006 4.7483e-006 -4.0614e-006 
5.62037 7.9922 12.2881 89.8189 -0.165244 178.755 0.418287 4.25399 -0.407965 0.870653 8.5048 -0.850694 0.870656 8.5048 -0.850694 0.681178 -7.87135 -0.0617561 1.68576e-006 3.0734 -3.11093e-006 -8.38308 -23.6466 -1.62036 -59.3735 22.5025 -40.9546 -35.2259 4.21668 -14.727 -38.9399 10.7735 -11.7092 -3.97569e-016 0 -7.95139e-016 0 0 -4.57205e-015 -3.97569e-016 -3.18055e-015 -1.39149e-015 -3.97569e-016 0 -7.95139e-016 -0.0145982 -9.29784e-005 3.59518e-006 -1.98785e-015 -3.18055e-015 1.19271e-015 -3.97569e-016 0 -7.95139e-016 -0.0187465 -0.00117825 6.1726e-005 -1.32417e-031 9.54166e-015 7.95139e-016 -3.97569e-016 0 -7.95139e-016 -0.0122728 -0.00324533 0.000672745 -1.98785e-015 3.18055e-015 7.95139e-016 -3.97569e-016 0 -7.95139e-016 0 0 -4.57205e-015 -3.97569e-016 -3.18055e-015 -1.39149e-015 -11.0391 -24.9623 3.78786 51.6698 5.05595 54.2265 54.4315 -5.62262 70.2679 37.7137 -1.98267 9.43994 4.61341e-006 1.74119e-006 -1.72404e-006 -2.6774e-007 9.82908e-007 -1.72821e-006 3.89896e-006 2.81359e-006 4.46711e-007 4.61341e-006 1.74119e-006 -1.72404e-006 0.0150196 -9.02189e-005 -6.8967e-006 3.89895e-006 2.81365e-006 4.46339e-007 4.61341e-006 1.74119e-006 -1.72404e-006 0.0189438 -0.00118432 -5.74889e-005 3.89895e-006 2.81366e-006 4.46206e-007 4.61341e-006 1.74119e-006 -1.72404e-006 0.0123073 -0.00325943 -0.000678507 3.89895e-006 2.81366e-006 4.46299e-007 4.61341e-006 1.74119e-006 -1.72404e-006 -2.6774e-007 9.82908e-007 -1.72821e-006 3.89896e-006 2.81359e-006 4.46711e-007 -20.2026 -38.3363 -16.1708 86.7565 28.4059 -99.5073 3.72587 19.8816 2.01905 -6.74364e-007 1.07425e-006 1.67253e-007 6.89893 -6.60138 9.17201 -0.522701 59.8407 -1.2503 3.41504 36.9108 0.2505 -9.33104e-007 1.20907e-005 -1.35291e-006 
